<?xml version="1.0" standalone="no"?>
<!DOCTYPE svg PUBLIC "-//W3C//DTD SVG 20010904//EN"
 "http://www.w3.org/TR/2001/REC-SVG-20010904/DTD/svg10.dtd">
<svg version="1.0" xmlns="http://www.w3.org/2000/svg"
 width="500.000000pt" height="500.000000pt" viewBox="0 0 500.000000 500.000000"
 preserveAspectRatio="xMidYMid meet">

<linearGradient id="BGgradient" gradientTransform="rotate(90)">
    <stop offset="0%" stop-color="#0EC8F7" />
    <stop offset="100%" stop-color="#9DB72F" />
</linearGradient>

<g transform="translate(0.000000,500.000000) scale(0.100000,-0.100000)"
fill="url(#BGgradient)" stroke="none">
<path d="M2315 4994 c-16 -2 -73 -9 -125 -15 -548 -62 -1120 -351 -1502 -757
-372 -397 -591 -860 -670 -1417 -17 -119 -17 -503 1 -620 58 -393 189 -748
388 -1050 113 -171 188 -262 337 -410 383 -381 857 -617 1406 -702 161 -25
539 -25 700 0 555 86 1027 323 1416 711 388 389 625 861 711 1416 25 161 25
539 0 700 -69 448 -248 862 -519 1203 -398 500 -968 827 -1613 923 -95 14
-467 27 -530 18z m307 -655 c129 -28 237 -116 310 -256 26 -48 80 -173 121
-278 41 -104 265 -658 497 -1230 232 -572 432 -1078 446 -1124 45 -156 26
-257 -66 -349 -72 -71 -131 -94 -239 -93 -48 0 -78 7 -117 26 -110 54 -147
123 -358 673 l-48 122 -657 0 -658 0 -82 -222 c-205 -549 -241 -598 -432 -599
-95 -1 -154 25 -226 96 -95 95 -112 182 -66 339 12 40 487 1254 960 2451 93
238 164 339 275 400 95 52 225 68 340 44z"/>
<path d="M2267 2995 c-130 -362 -235 -660 -233 -662 1 -2 217 -2 478 -1 l475
3 -238 650 c-131 358 -240 654 -242 659 -1 5 -110 -287 -240 -649z"/>
</g>
</svg>
